<svg width="774" height="126" viewBox="0 0 774 126" fill="none" xmlns="http://www.w3.org/2000/svg">
<path d="M0.154268 124V10.1954H72.7116V27.3094H20.5019V60.9855H68.2162V77.5475H20.5019V124H0.154268ZM103.312 23.3661C96.8448 23.3661 91.5608 18.2398 91.5608 11.7727C91.5608 5.3845 96.8448 0.179296 103.312 0.179296C109.7 0.179296 114.984 5.3845 114.984 11.7727C114.984 18.2398 109.7 23.3661 103.312 23.3661ZM93.4536 124V37.7987H113.091V124H93.4536ZM171.137 124.394C151.342 124.394 143.218 117.77 143.218 101.129V53.02H129.811V37.7987H143.218V16.6624H163.172V37.7987H181.39V53.02H163.172V96.4755C163.172 105.072 166.563 108.7 174.765 108.7C177.525 108.7 179.024 108.621 181.39 108.384V123.527C178.551 124.079 174.923 124.394 171.137 124.394Z" fill="url(#paint0_linear_296_443)"/>
<path d="M202.999 124V10.1954H223.347V106.886H275.557V124H202.999ZM328.397 125.735C302.766 125.735 287.229 108.542 287.229 81.0965V81.0177C287.229 53.8875 302.923 36.1425 327.451 36.1425C351.979 36.1425 367.121 53.3354 367.121 79.3615V85.8285H306.867C307.103 101.286 315.463 110.277 328.792 110.277C339.439 110.277 345.512 104.914 347.404 100.971L347.641 100.419H366.332L366.096 101.129C363.335 112.249 351.821 125.735 328.397 125.735ZM327.688 51.5215C316.725 51.5215 308.523 58.935 307.025 72.6578H347.956C346.616 58.5406 338.65 51.5215 327.688 51.5215ZM386.759 124V37.7987H406.397V50.9694H407.737C411.838 41.742 420.119 36.1425 432.58 36.1425C451.824 36.1425 462.313 47.7359 462.313 68.2412V124H442.675V72.8155C442.675 59.4082 437.233 52.6256 425.325 52.6256C413.652 52.6256 406.397 60.8278 406.397 73.7619V124H386.759ZM518.072 125.735C496.147 125.735 482.897 115.64 481.241 101.05V100.892H500.721L500.8 101.05C502.851 107.044 508.608 111.224 518.387 111.224C528.167 111.224 534.949 106.807 534.949 100.34V100.182C534.949 95.1348 531.164 91.8224 521.7 89.693L507.74 86.5383C491.336 82.9105 483.528 75.1815 483.528 62.484V62.4051C483.528 46.8684 497.724 36.1425 518.072 36.1425C539.05 36.1425 551.59 46.5529 552.852 60.5123V60.67H534.397L534.318 60.4334C532.899 54.9916 527.22 50.5751 517.993 50.5751C509.239 50.5751 502.929 54.8339 502.929 61.301V61.3798C502.929 66.4273 506.557 69.5031 515.864 71.6325L529.823 74.7083C546.7 78.4939 554.666 85.6708 554.666 98.2106V98.3683C554.666 114.773 539.287 125.735 518.072 125.735ZM589.052 125.577C581.875 125.577 576.512 120.136 576.512 113.116C576.512 106.097 581.875 100.655 589.052 100.655C596.308 100.655 601.592 106.097 601.592 113.116C601.592 120.136 596.308 125.577 589.052 125.577ZM629.668 124V10.1954H650.016V124H629.668ZM669.654 124L710.033 10.1954H732.984L773.363 124H752.069L742.526 94.5827H700.412L690.948 124H669.654ZM720.838 31.3316L705.538 78.8883H737.479L722.179 31.3316H720.838Z" fill="#CBD5E1"/>
<defs>
<linearGradient id="paint0_linear_296_443" x1="382.5" y1="-51" x2="382.5" y2="184" gradientUnits="userSpaceOnUse">
<stop stop-color="#27CDC0"/>
<stop offset="1" stop-color="#03C5F0"/>
</linearGradient>
</defs>
</svg>